<svg class="animated" id="freepik_stories-counting-stars" xmlns="http://www.w3.org/2000/svg" viewBox="0 0 500 500" version="1.1" xmlns:xlink="http://www.w3.org/1999/xlink" xmlns:svgjs="http://svgjs.com/svgjs"><style>svg#freepik_stories-counting-stars:not(.animated) .animable {opacity: 0;}svg#freepik_stories-counting-stars.animated #freepik--Stars--inject-118 {animation: 6s Infinite  linear floating;animation-delay: 0s;}            @keyframes floating {                0% {                    opacity: 1;                    transform: translateY(0px);                }                50% {                    transform: translateY(-10px);                }                100% {                    opacity: 1;                    transform: translateY(0px);                }            }        .animator-hidden { display: none; }</style><g id="freepik--background-simple--inject-118" class="animable" style="transform-origin: 246.962px 254.85px;"><path d="M458.77,165.65C438.46,111.46,400.56,64.36,345,45c-48.78-17-104.8-18.89-154.24-3.41-24.66,7.73-48,20.17-66.59,37.94-23,21.91-34.31,50.7-44.11,80.12C70.63,187.8,66.45,217.15,55.82,245,44.33,275,7,335.08,19.44,390.47s33.5,71.35,64.14,78.86,96.7-16.9,135-11.26,90.95,32.86,158.93,14.08c93.4-25.8,107.18-169.57,96.34-247.25A279.12,279.12,0,0,0,458.77,165.65Z" style="fill: rgb(38, 50, 56); transform-origin: 246.962px 254.85px;" id="elv5dslyzms" class="animable"></path><g id="el5gknz24ydcd"><path d="M458.77,165.65C438.46,111.46,400.56,64.36,345,45c-48.78-17-104.8-18.89-154.24-3.41-24.66,7.73-48,20.17-66.59,37.94-23,21.91-34.31,50.7-44.11,80.12C70.63,187.8,66.45,217.15,55.82,245,44.33,275,7,335.08,19.44,390.47s33.5,71.35,64.14,78.86,96.7-16.9,135-11.26,90.95,32.86,158.93,14.08c93.4-25.8,107.18-169.57,96.34-247.25A279.12,279.12,0,0,0,458.77,165.65Z" style="fill: rgb(255, 255, 255); opacity: 0.24; transform-origin: 246.962px 254.85px;" class="animable"></path></g></g><g id="freepik--Stars--inject-118" class="animable animator-active" style="transform-origin: 296.795px 218.11px;"><circle cx="377" cy="147" r="10.98" style="fill: rgb(255, 193, 0); transform-origin: 377px 147px;" id="el3orbmt8w1i" class="animable"></circle><g id="elsozzybtp3tc"><circle cx="260.69" cy="250.58" r="9.42" style="fill: rgb(255, 193, 0); transform-origin: 260.69px 250.58px; transform: rotate(-76.66deg);" class="animable"></circle></g><circle cx="408" cy="227" r="7.1" style="fill: rgb(255, 193, 0); transform-origin: 408px 227px;" id="elffhgpqi2wx" class="animable"></circle><circle cx="168.76" cy="131.09" r="7.1" style="fill: rgb(255, 193, 0); transform-origin: 168.76px 131.09px;" id="eld4x6c6idq9m" class="animable"></circle><g id="eljbd3ca5cab"><circle cx="434.32" cy="159" r="7.1" style="fill: rgb(219, 219, 219); transform-origin: 434.32px 159px; transform: rotate(-80.8deg);" class="animable"></circle></g><g id="elgjjen4thxxu"><circle cx="442.88" cy="280.62" r="7.1" style="fill: rgb(255, 193, 0); transform-origin: 442.88px 280.62px; transform: rotate(-76.68deg);" class="animable"></circle></g><g id="el8260p7aeqse"><circle cx="233.53" cy="84.08" r="7.1" style="fill: rgb(255, 193, 0); transform-origin: 233.53px 84.08px; transform: rotate(-80.45deg);" class="animable"></circle></g><circle cx="297.81" cy="62.35" r="4.75" style="fill: rgb(219, 219, 219); transform-origin: 297.81px 62.35px;" id="el0bo0458h68r" class="animable"></circle><path d="M312.7,205c-3.95.45-4.31.81-4.75,4.75-.45-3.94-.81-4.3-4.75-4.75,3.94-.44,4.3-.8,4.75-4.75C308.39,204.15,308.75,204.51,312.7,205Z" style="fill: rgb(255, 193, 0); transform-origin: 307.95px 205px;" id="elshhhyy7pd98" class="animable"></path><circle cx="346.08" cy="275.08" r="4.75" style="fill: rgb(255, 193, 0); transform-origin: 346.08px 275.08px;" id="eldl4qpj3ho2b" class="animable"></circle><circle cx="305.94" cy="337.01" r="4.75" style="fill: rgb(255, 193, 0); transform-origin: 305.94px 337.01px;" id="elotzbz8m5fzc" class="animable"></circle><circle cx="411.4" cy="350.66" r="4.75" style="fill: rgb(255, 193, 0); transform-origin: 411.4px 350.66px;" id="elhmbvcppg1eg" class="animable"></circle><circle cx="450" cy="330" r="4.75" style="fill: rgb(219, 219, 219); transform-origin: 450px 330px;" id="elxc1fyhz7ei" class="animable"></circle><circle cx="290.25" cy="294" r="4.75" style="fill: rgb(219, 219, 219); transform-origin: 290.25px 294px;" id="elnxuv8wcfy4" class="animable"></circle><path d="M195.76,275.65c-3.95.44-4.31.81-4.75,4.75-.45-3.94-.81-4.31-4.76-4.75,3.95-.45,4.31-.81,4.76-4.75C191.45,274.84,191.81,275.2,195.76,275.65Z" style="fill: rgb(255, 193, 0); transform-origin: 191.005px 275.65px;" id="elbry3pml1aeq" class="animable"></path><circle cx="437.14" cy="208.98" r="3.17" style="fill: rgb(255, 193, 0); transform-origin: 437.14px 208.98px;" id="ely9whfrrg6x" class="animable"></circle><circle cx="377.56" cy="273.51" r="3.17" style="fill: rgb(219, 219, 219); transform-origin: 377.56px 273.51px;" id="ely78jll229e" class="animable"></circle><circle cx="323.77" cy="130.78" r="3.17" style="fill: rgb(219, 219, 219); transform-origin: 323.77px 130.78px;" id="el5amzw2yvelx" class="animable"></circle><circle cx="340.8" cy="70.18" r="3.17" style="fill: rgb(255, 193, 0); transform-origin: 340.8px 70.18px;" id="el5r32wgkgg0e" class="animable"></circle><circle cx="228.3" cy="133.24" r="1.58" style="fill: rgb(219, 219, 219); transform-origin: 228.3px 133.24px;" id="ellfcwfl0br2b" class="animable"></circle><circle cx="181.72" cy="87.61" r="1.58" style="fill: rgb(219, 219, 219); transform-origin: 181.72px 87.61px;" id="elzar4k04mqw" class="animable"></circle><circle cx="245.73" cy="51.8" r="1.58" style="fill: rgb(219, 219, 219); transform-origin: 245.73px 51.8px;" id="elid965fysucq" class="animable"></circle><circle cx="366.42" cy="352" r="1.58" style="fill: rgb(255, 193, 0); transform-origin: 366.42px 352px;" id="el5xqdon9s7gg" class="animable"></circle><circle cx="253" cy="201" r="1.58" style="fill: rgb(219, 219, 219); transform-origin: 253px 201px;" id="elo9n2888409" class="animable"></circle><circle cx="368.42" cy="220" r="1.58" style="fill: rgb(219, 219, 219); transform-origin: 368.42px 220px;" id="elm0hstydjzzr" class="animable"></circle><circle cx="140.42" cy="93" r="1.58" style="fill: rgb(255, 193, 0); transform-origin: 140.42px 93px;" id="el8scnmq6pwyg" class="animable"></circle><circle cx="206.42" cy="305" r="1.58" style="fill: rgb(219, 219, 219); transform-origin: 206.42px 305px;" id="elmwg0wxvh49" class="animable"></circle><circle cx="435.42" cy="368" r="1.58" style="fill: rgb(255, 193, 0); transform-origin: 435.42px 368px;" id="elkb839fjqmf" class="animable"></circle><circle cx="381" cy="384.42" r="1.58" style="fill: rgb(255, 193, 0); transform-origin: 381px 384.42px;" id="el0ths5li2i5ep" class="animable"></circle><path d="M413.33,104.71c-3.95.45-4.31.81-4.75,4.75-.45-3.94-.81-4.3-4.75-4.75,3.94-.44,4.3-.8,4.75-4.75C409,103.91,409.38,104.27,413.33,104.71Z" style="fill: rgb(219, 219, 219); transform-origin: 408.58px 104.71px;" id="elmshrzdgvjmc" class="animable"></path><path d="M358.39,83.28c-1.91-.26-3.86-.47-5.78-.62l.07-1c1.95.15,3.91.37,5.85.63Z" style="fill: rgb(219, 219, 219); transform-origin: 355.57px 82.47px;" id="elyxkhp6devl" class="animable"></path><path d="M407.43,104.31c-.17-.15-17.18-15.15-44.31-20.25l.19-1c27.42,5.16,44.61,20.34,44.78,20.49Z" style="fill: rgb(219, 219, 219); transform-origin: 385.605px 93.685px;" id="el4m41i8xotd" class="animable"></path></g><g id="freepik--Mountains--inject-118" class="animable" style="transform-origin: 236.595px 411.286px;"><path d="M448.38,410.12c-9-6-20.46-13.12-23.38-13.12-5,0-47,20-53,19s-96-69-118-72c-20.8-2.84-208.68,59.55-229.19,66.39,12.8,39.53,32.18,52.42,58.77,58.94,30.64,7.51,96.7-16.9,135-11.26s90.95,32.86,158.93,14.08C410,463.17,432.85,439.91,448.38,410.12Z" style="fill: rgb(38, 50, 56); transform-origin: 236.595px 411.286px;" id="elwbgwq37ra6i" class="animable"></path></g><g id="freepik--Characters--inject-118" class="animable animator-hidden" style="transform-origin: 155.24px 296.349px;"><path d="M72.45,410.45a27.94,27.94,0,0,0,5.2,7.51v49.76c1.94.58,3.91,1.12,5.93,1.61,17.48,4.29,46.5-1.82,75.31-6.8-.64-13.28-1.62-35.92-1.22-43.7.58-11.27,4-30.62,4-30.62s-55.17,4-70.48,2.31-24-3.47-24-3.47l1.44,4.62S70.72,406.41,72.45,410.45Z" style="fill: rgb(82, 82, 82); stroke: rgb(38, 50, 56); stroke-linecap: round; stroke-linejoin: round; transform-origin: 114.43px 428.916px;" id="elzg520jtpdw8" class="animable"></path><path d="M57.14,379.25s-1.16,10.69.29,12.42,12.71,9.25,26.29,10.11,36.68,3.18,43.62,2.31,22.82-4.62,27.73-5.77,9.82-3.76,13-5.49,3.46-2,4.62-4.05.58-12.71.58-12.71a159.74,159.74,0,0,1-37.85,9.83c-21.66,2.88-51.42-1.74-61.82-5.49s-16.75-4.34-16.75-4.34Z" style="fill: rgb(255, 255, 255); stroke: rgb(38, 50, 56); stroke-linecap: round; stroke-linejoin: round; transform-origin: 115.058px 390.176px;" id="eldy3kmmw53kw" class="animable"></path><path d="M229.25,159.92s11.44-11.76,15.26-16.53,16.21-14.94,19.39-17.48,11.76-5.09,12.39-3.5-.63,5.09-2.86,5.72-10.17,7-10.17,7l-1.59,1.59a23.55,23.55,0,0,1,6,4.13c2.55,2.54,2.55,11.76,0,15.89A21.94,21.94,0,0,1,256.27,166a59.13,59.13,0,0,1-9.54,2.23l-11.12,7.94Z" style="fill: rgb(255, 255, 255); stroke: rgb(38, 50, 56); stroke-linecap: round; stroke-linejoin: round; transform-origin: 252.851px 149.044px;" id="elqcde39jsuvb" class="animable"></path><path d="M272.87,149.69a4.9,4.9,0,0,1,1.28,4.14c-.32,2.72-4,6.54-5.11,7.34s-5.26.8-5.26-.32,2.87-4.3,3.83-5.1S272.87,149.69,272.87,149.69Z" style="fill: rgb(255, 255, 255); stroke: rgb(38, 50, 56); stroke-linecap: round; stroke-linejoin: round; transform-origin: 268.996px 155.713px;" id="el2dao8j6vy9l" class="animable"></path><path d="M271.28,143.79s2.39,1.27,2.71,3.51-3.67,7-4.95,8.45a8.28,8.28,0,0,1-6.85,2.39c-2.55-.48-1-4.15-.32-4.78s5.74-6.22,6.38-6.86S271.28,143.79,271.28,143.79Z" style="fill: rgb(255, 255, 255); stroke: rgb(38, 50, 56); stroke-linecap: round; stroke-linejoin: round; transform-origin: 267.393px 150.994px;" id="eltrqx3j2w6h" class="animable"></path><path d="M264.42,144s-5.58,8.77-5.1,9.88,2.87,1.28,4.3.8,6.08-7.82,7.59-10,1.18-3.26-.89-4.06a14.81,14.81,0,0,0-5.42-.48Z" style="fill: rgb(255, 255, 255); stroke: rgb(38, 50, 56); stroke-linecap: round; stroke-linejoin: round; transform-origin: 265.719px 147.502px;" id="elqqygh9rotuc" class="animable"></path><path d="M247.37,143.07l11.76-6.67s12.08,4.45,13,5.08,1.91,1.91-1,3.18-10.81,0-10.81,0-4.13,11.45-7.95,13a59.68,59.68,0,0,1-6,2.22" style="fill: rgb(255, 255, 255); stroke: rgb(38, 50, 56); stroke-linecap: round; stroke-linejoin: round; transform-origin: 259.718px 148.14px;" id="eleml1xf2wxnr" class="animable"></path><path d="M157.38,204.77s16.18-6.65,20.22-8.67,12.13-8.09,17.33-11,35.83-27.44,35.83-27.44,5.48,8.38,6.06,13.29,3.76,14.73,3.76,14.73l-11.27,9.54s-10.4,8.95-16.47,16.75-27.44,21.09-34.08,25.42S164,249.83,162.58,253.88a64.13,64.13,0,0,0-2.31,9.82s11.84,79.44,11.84,83.49S175,374.34,175,376.36s-9.24,9-18.49,13-40.73,2-57.48,2-41.6-9.53-43.91-10.68-.87-9.54-.87-9.54l5.2-42.46s5.2-41.6,6.36-49.11,6.93-34.38,8.37-39.29S80,230.19,88.63,226.15s52-14.45,58.06-17.63A35.07,35.07,0,0,1,157.38,204.77Z" style="fill: rgb(255, 193, 0); stroke: rgb(38, 50, 56); stroke-linecap: round; stroke-linejoin: round; transform-origin: 147.193px 274.76px;" id="elnyrvu7nuyah" class="animable"></path><path d="M162.26,239.15c.51-2,.9-3.47.9-3.47" style="fill: none; stroke: rgb(38, 50, 56); stroke-linecap: round; stroke-linejoin: round; transform-origin: 162.71px 237.415px;" id="el9qd7naq45ch" class="animable"></path><path d="M160.27,263.7s-.58-9.82-.29-13.58a68.11,68.11,0,0,1,1.56-8.07" style="fill: none; stroke: rgb(38, 50, 56); stroke-linecap: round; stroke-linejoin: round; transform-origin: 160.719px 252.875px;" id="elhspvo5id3f" class="animable"></path><path d="M169.75,228.74c.43-1.24.83-2.32,1.21-3.17" style="fill: none; stroke: rgb(38, 50, 56); stroke-linecap: round; stroke-linejoin: round; transform-origin: 170.355px 227.155px;" id="el0pfqtxobifb" class="animable"></path><path d="M163,252.31s3.16-12.49,5.92-21" style="fill: none; stroke: rgb(38, 50, 56); stroke-linecap: round; stroke-linejoin: round; transform-origin: 165.96px 241.81px;" id="el52obp38i14b" class="animable"></path><path d="M210,200.38c-.95,2.23-1.88,4.37-2.77,6.35" style="fill: none; stroke: rgb(38, 50, 56); stroke-linecap: round; stroke-linejoin: round; transform-origin: 208.615px 203.555px;" id="elw3hq64gzyt" class="animable"></path><path d="M223.27,167.42s-5.33,13.93-10.84,27.2" style="fill: none; stroke: rgb(38, 50, 56); stroke-linecap: round; stroke-linejoin: round; transform-origin: 217.85px 181.02px;" id="elqk5aiw7sb3" class="animable"></path><path d="M213.45,199.49s-2.07,9.83-6.21,15.52" style="fill: none; stroke: rgb(38, 50, 56); stroke-linecap: round; stroke-linejoin: round; transform-origin: 210.345px 207.25px;" id="elt8vzr6y46w8" class="animable"></path><path d="M218,168.08s4.34,10.11,6.07,15.6A111.3,111.3,0,0,1,227,195.81" style="fill: none; stroke: rgb(38, 50, 56); stroke-linecap: round; stroke-linejoin: round; transform-origin: 222.5px 181.945px;" id="eljr3j8chpzhg" class="animable"></path><path d="M103.38,228.92s10.65,9.53,16.26,14,6.17,7.85,11.5,11.21,16.26,18.23,16.26,18.23,1.68-17.95,3.08-25-4.2-23.27-7-28S113.2,205,109,209.25s-8.41,16-7.57,17.15S103.38,228.92,103.38,228.92Z" style="fill: rgb(255, 255, 255); stroke: rgb(38, 50, 56); stroke-linecap: round; stroke-linejoin: round; transform-origin: 126.012px 240.277px;" id="elhqxv07jsyzt" class="animable"></path><path d="M143.8,258.21s-12.42-6.35-19.06-13-18.2-19.64-18.2-22.24S109,209.25,109,209.25s18.64,8.52,22.1,8.52,9.53,4,13,10.4,3.76,12.42,4,14.73,1.15,17.62,1.15,17.62,3.18-12.13,4.91-19.06,4.62-9.83,1.74-15.31S147.27,214,141.49,211.7s-28-7.8-36.4-4.62-22,8.38-31.2,13.58-9,6.93-10.4,13.57-9,30.63-7.8,34.09,7.23-4.33,10.69-9.24,11.27-18.49,14.45-21.38,14.73-3.18,17.62-1.73,17,9.24,22.24,11.84,24,14.16,24,14.16l2.6,1.44Z" style="fill: rgb(255, 255, 255); stroke: rgb(38, 50, 56); stroke-linecap: round; stroke-linejoin: round; transform-origin: 106.342px 237.647px;" id="elkkcp9q3lfzl" class="animable"></path><polygon points="140.84 243.48 148.86 225.71 142.36 222.03 140.84 243.48" style="fill: rgb(255, 255, 255); stroke: rgb(38, 50, 56); stroke-linecap: round; stroke-linejoin: round; transform-origin: 144.85px 232.755px;" id="el263bq6ut3qw" class="animable"></polygon><polygon points="148.86 225.71 151.24 239.15 145.17 234.38 148.86 225.71" style="fill: rgb(255, 255, 255); stroke: rgb(38, 50, 56); stroke-linecap: round; stroke-linejoin: round; transform-origin: 148.205px 232.43px;" id="el7b0d6ovyfa2" class="animable"></polygon><path d="M148.42,211.85s-4.11,3.9-4.33,5.63-3.25,26-3.25,26l-6.28-14.95S109.64,218.35,107,216.4s2.17-13.22,2.17-13.22-8.23-5-9.32-11.27,2-11.48,7.59-11.91,12.35,6.28,15.38,9.75,11.26,12.56,12.56,13.86S148.42,211.85,148.42,211.85Z" style="fill: rgb(255, 255, 255); stroke: rgb(38, 50, 56); stroke-linecap: round; stroke-linejoin: round; transform-origin: 124.026px 211.73px;" id="elfkgvx1ejefd" class="animable"></path><path d="M92.53,197.33s-.87,2.82,2.6,6.07a16.73,16.73,0,0,0,8.23,3.9s-1.73,2.6,0,3,5-4.12,5-4.12-3,2.82.65,3,7.15-4.77,7.15-7.8-1.73-8.89-1.73-8.89,5.85-1.3,8.23-5.41,0-10.19-.21-14.3a65,65,0,0,0-.87-7.59s-18.63,16.9-23.62,21.45a24.21,24.21,0,0,0-6.5,9.1Z" style="fill: rgb(38, 50, 56); stroke: rgb(38, 50, 56); stroke-linecap: round; stroke-linejoin: round; transform-origin: 107.585px 187.758px;" id="eldw33u8mnke4" class="animable"></path><path d="M138.92,153.43s6.1,6.91,6.91,10.16.81,6.09,3.25,6.91,6.91,1.62,6.5,4.87a7.26,7.26,0,0,1-2.84,4.88s3.35,5.88,3.35,7.91-2.19,1.79-3.18,2.19a27.12,27.12,0,0,0-5.54,3.15,33.64,33.64,0,0,0,4.54,0c2.16-.12,5.44-1.47,6-.6,1.22,2,3.81,7.63,4.21,10.07s-3.25,6.5-8.53,8.93-27.55-.79-29.17-1.6-9.1-13-9.1-13-7.34,1.06-10.19-2.6-2.32-9.61.52-11.64,5.69-1.22,6.5,0A53.49,53.49,0,0,0,117,188l.4-2,4.07-1.62a22.68,22.68,0,0,0-1.63-3.25c-.81-1.22-1.22-2.85-.81-5.69a40.84,40.84,0,0,0,0-7.31Z" style="fill: rgb(255, 255, 255); stroke: rgb(38, 50, 56); stroke-linecap: round; stroke-linejoin: round; transform-origin: 132.694px 183.111px;" id="elglb7svo7fbt" class="animable"></path><path d="M152.74,180.25a93.52,93.52,0,0,0-7.6,6.73c-6,5.59-6.15,6-4.47,8.57s2.23,6.7,2.79,9.87,1.86,7.45,5.59,7.82,9.87-3.16,12.48-5.59,1.3-5.77.37-7.26-1.68-4.84-2.79-4.1-.56,1.49-.56,2.24-4.1,1.3-7.08,1.67-7.45-3.54-8.2-4.65,6.34-6.71,7.83-7.45,5.21,0,5.21-3S155.68,180.22,152.74,180.25Z" style="fill: rgb(38, 50, 56); stroke: rgb(38, 50, 56); stroke-linecap: round; stroke-linejoin: round; transform-origin: 151.407px 196.758px;" id="elr4qu3sc6w2q" class="animable"></path><line x1="147.74" y1="192.01" x2="146.81" y2="194.24" style="fill: none; stroke: rgb(38, 50, 56); stroke-linecap: round; stroke-linejoin: round; transform-origin: 147.275px 193.125px;" id="elt7eskmqyg6g" class="animable"></line><path d="M146.07,179.71s-.19,2,1.67,2.24,5-1.7,5-1.7" style="fill: none; stroke: rgb(38, 50, 56); stroke-linecap: round; stroke-linejoin: round; transform-origin: 149.402px 180.84px;" id="elvdof8um9qvo" class="animable"></path><path d="M138.41,175.85a34.45,34.45,0,0,1,4.68-2.47" style="fill: none; stroke: rgb(38, 50, 56); stroke-linecap: round; stroke-linejoin: round; transform-origin: 140.75px 174.615px;" id="el5iboqncoc5o" class="animable"></path><path d="M140.9,170.46c.6,1.25.51,2.54-.18,2.87s-1.75-.42-2.34-1.68-.51-2.54.19-2.87S140.31,169.2,140.9,170.46Z" style="fill: rgb(38, 50, 56); transform-origin: 139.642px 171.055px;" id="ellw7ptzw9arl" class="animable"></path><path d="M134.33,168.17s.75-6,6.15-4.66" style="fill: none; stroke: rgb(38, 50, 56); stroke-linecap: round; stroke-linejoin: round; stroke-width: 2px; transform-origin: 137.405px 165.742px;" id="el98hpes3666f" class="animable"></path><path d="M137.3,145.31s-2-6.5-15.84-8.53a58.23,58.23,0,0,0-34.94,6.09c-8.53,4.47-15.44,7.72-15.85,9.75s2,3.66,2,3.66A43.38,43.38,0,0,0,76,176.59C80.42,186.75,83.67,188,83.67,188S111.71,155.46,137.3,145.31Z" style="fill: rgb(133, 133, 133); stroke: rgb(38, 50, 56); stroke-linecap: round; stroke-linejoin: round; transform-origin: 103.962px 162.118px;" id="el2gco3so3fns" class="animable"></path><path d="M78.39,192.43s9.35,8.94,11,8.94,16.25-18.28,24.38-25.59,28-20.32,28-20.32a43.31,43.31,0,0,0,.4-4.87c0-2-3.25-8.13-4.87-8.94s-31.69,14.63-43.47,26S74.74,189.59,78.39,192.43Z" style="fill: rgb(133, 133, 133); stroke: rgb(38, 50, 56); stroke-linecap: round; stroke-linejoin: round; transform-origin: 109.808px 171.495px;" id="elq3posdk8go" class="animable"></path><path d="M82.11,190.29a84.85,84.85,0,0,0,8,5c1.29.5,3.18.6,3.77.2" style="fill: none; stroke: rgb(38, 50, 56); stroke-linecap: round; stroke-linejoin: round; transform-origin: 87.995px 193.013px;" id="eldllb08t4qsd" class="animable"></path><path d="M79.23,186.18a2.28,2.28,0,0,0,.79,2.58l.56.44" style="fill: none; stroke: rgb(38, 50, 56); stroke-linecap: round; stroke-linejoin: round; transform-origin: 79.8412px 187.69px;" id="eldodcnmwivav" class="animable"></path><path d="M93.9,189.33a6.26,6.26,0,0,0,2,1c1.19,0,3.77-.2,3.77-.2" style="fill: none; stroke: rgb(38, 50, 56); stroke-linecap: round; stroke-linejoin: round; transform-origin: 96.785px 189.83px;" id="elxsn5sh1evm" class="animable"></path><path d="M84.19,178.83s-.59,2.38.8,3.77a77.23,77.23,0,0,0,6.75,5.28" style="fill: none; stroke: rgb(38, 50, 56); stroke-linecap: round; stroke-linejoin: round; transform-origin: 87.9028px 183.355px;" id="el5q7xtzn0e4q" class="animable"></path><path d="M97.23,180.18a45.55,45.55,0,0,0,5.83,4c.59,0,2.18-.2,2.18-.2" style="fill: none; stroke: rgb(38, 50, 56); stroke-linecap: round; stroke-linejoin: round; transform-origin: 101.235px 182.18px;" id="elf9ko8ovk2t4" class="animable"></path><path d="M90.35,171.68a4.44,4.44,0,0,0,1.39,4.17c.59.53,1.78,1.49,3.18,2.57" style="fill: none; stroke: rgb(38, 50, 56); stroke-linecap: round; stroke-linejoin: round; transform-origin: 92.5925px 175.05px;" id="eldc38s5y2po" class="animable"></path><path d="M105.18,175.54a12.17,12.17,0,0,0,3.24,2.1" style="fill: none; stroke: rgb(38, 50, 56); stroke-linecap: round; stroke-linejoin: round; transform-origin: 106.8px 176.59px;" id="elqv5l10xjfp" class="animable"></path><path d="M96.7,166.12s1.59,3.77,2.78,4.77c.48.39,1.85,1.56,3.39,2.81" style="fill: none; stroke: rgb(38, 50, 56); stroke-linecap: round; stroke-linejoin: round; transform-origin: 99.785px 169.91px;" id="el4dj62h10t3a" class="animable"></path><path d="M104.88,211s17.33,11.05,20.36,13a80,80,0,0,0,9.32,4.55l-6.72,17.76s-12.56-9.74-18.2-16.24S101.19,214.88,104.88,211Z" style="fill: rgb(255, 255, 255); stroke: rgb(38, 50, 56); stroke-linecap: round; stroke-linejoin: round; transform-origin: 118.886px 228.655px;" id="elbetcost2rcj" class="animable"></path><path d="M151.89,264.28a17.73,17.73,0,0,1,4.05,7.22c1.15,4.33,4.14,8.05,5.48,8.67,4.12,1.87,6.36,4,4.91,7.51s-2.88,3.75-2.88,3.75.28,11.85-.58,15.89-5.2,4.33-9,4.62a28.39,28.39,0,0,1-7.51-.58v15.32s-12.42-2.89-16.46-3.18-8.38-.29-8.38-.29l.29-8.38s-.29.87-2.6,1.45-4.34-.29-3.47-1.16a5.18,5.18,0,0,0,1.16-2.31,36.28,36.28,0,0,1-9.83-5.78c-4.91-4-.86-13.58,6.94-22.53s13.58-13.58,24-18.49S151.89,264.28,151.89,264.28Z" style="fill: rgb(255, 255, 255); stroke: rgb(38, 50, 56); stroke-linecap: round; stroke-linejoin: round; transform-origin: 135.851px 294.974px;" id="elmnj4gzqg78" class="animable"></path><path d="M135.86,285.37a12.89,12.89,0,0,1-1.74-8.24,10.33,10.33,0,0,0-5.92,1.59c-2.86,1.78-15.92,11.55-22.1,18.1-1.68,4.35-1.6,8.06,1,10.21a36.28,36.28,0,0,0,9.83,5.78,5.18,5.18,0,0,1-1.16,2.31c-.87.87,1.16,1.73,3.47,1.16s2.6-1.45,2.6-1.45l0,1.05,0,0s.86-.72,1.44-1.3,2.46-3.32,2.46-3.32l.43,2.31a4,4,0,0,0,2.75-2c1.15-1.88,3-7.8,3-7.8a8,8,0,0,1-6.79-1.3c-3.47-2.46-4.77-8.81-3-10.11s4-1.3,6.64-.43a30.23,30.23,0,0,1,6.21,3.46,13.15,13.15,0,0,0-.43-3.32,6.81,6.81,0,0,0-1.45-2.31,15.44,15.44,0,0,0,3.76,0,13.62,13.62,0,0,1,2.74-.29S138.31,289.12,135.86,285.37Z" style="fill: rgb(38, 50, 56); stroke: rgb(38, 50, 56); stroke-linecap: round; stroke-linejoin: round; transform-origin: 122.285px 296.793px;" id="elq2617bsdvo" class="animable"></path><path d="M154,279.69c.4,1.44.26,2.74-.32,2.9s-1.37-.87-1.77-2.31-.26-2.74.31-2.9S153.61,278.25,154,279.69Z" style="fill: rgb(38, 50, 56); transform-origin: 152.955px 279.985px;" id="el1gz7uqvnplq" class="animable"></path><path d="M159,296.13s-5-.44-7.8-2.6c0,0-.87,5.2,1.95,6.06S159,296.13,159,296.13Z" style="fill: rgb(38, 50, 56); stroke: rgb(38, 50, 56); stroke-linecap: round; stroke-linejoin: round; transform-origin: 155.037px 296.617px;" id="el8zkc2nv3yzc" class="animable"></path><path d="M147.12,275.33s.65-4.12,3.9-4.12" style="fill: none; stroke: rgb(38, 50, 56); stroke-linecap: round; stroke-linejoin: round; transform-origin: 149.07px 273.27px;" id="el83jdrc49suo" class="animable"></path><path d="M108.85,463.89l.22,6.36c16.71-1.45,36.54-5.54,55.9-8.75,0-2.54-.08-4.79-.08-5.7,0-2.6,2.31-16.75,2.31-16.75s-31.78,6.64-43.91,5.2a76,76,0,0,1-19.93-4.91s-1.16,10.4,0,15.31S108.85,463.89,108.85,463.89Z" style="fill: rgb(255, 193, 0); stroke: rgb(38, 50, 56); stroke-linecap: round; stroke-linejoin: round; transform-origin: 135.022px 454.65px;" id="el7scou5ibjof" class="animable"></path><path d="M96.43,427.49v11.85s15.88,7.51,28.31,8.09,32.64-2.6,36.68-4.05,12.71-7.22,12.71-7.22l-2.88-9.82S149,431.83,136,432.12s-28.31-3.18-31.77-4.63-7.23-2.6-7.23-2.6Z" style="fill: rgb(255, 255, 255); stroke: rgb(38, 50, 56); stroke-linecap: round; stroke-linejoin: round; transform-origin: 135.28px 436.195px;" id="elmnji1d4bcfk" class="animable"></path><path d="M103.65,356.72s-8.38,66.15-8.38,70.49,19.36,12.71,39,11.55,36.11-6.93,38.13-10.4-1.73-16.18-1.73-17.33S158,349.5,157.38,348.34s-2-6.64-5.2-11-25.13-10.68-34.67-7.22-13,12.42-13.28,16.47S103.65,356.72,103.65,356.72Z" style="fill: rgb(255, 255, 255); stroke: rgb(38, 50, 56); stroke-linecap: round; stroke-linejoin: round; transform-origin: 134.134px 383.996px;" id="el1a2p9urd3ua" class="animable"></path><path d="M106.25,328.41S93.54,341.7,94.12,345.16s3.75,13.58,5.48,14.74,3.18,0,4.91-1.16,16.76-18.49,19.07-21.09,20.22-.86,22-.57,9.53,8.37,10.4,9.53,5.77,4.91,1.44-2.6-9-18.78-13.29-20.22-14.15-7.8-23.4-3.76A65.58,65.58,0,0,0,106.25,328.41Z" style="fill: rgb(255, 255, 255); stroke: rgb(38, 50, 56); stroke-linecap: round; stroke-linejoin: round; transform-origin: 126.642px 339.543px;" id="elzd50g5w0nb" class="animable"></path><path d="M210,331.88s14.44-14.16,15-15,5.49-4,8.37-5.77,13-3.18,13.29-.87-4,2.31-5.77,2.89-6.94,4.33-6.94,4.33a62.93,62.93,0,0,1,6.94.29c.86.29,2.6,7.8,2.6,8.67s-4.34,4.91-4.92,5.77-4,.87-4,.87l-.58-3.75s-4.91,5.48-6.93,6.35a34.75,34.75,0,0,1-6.64,1.45L214,340.83Z" style="fill: rgb(255, 255, 255); stroke: rgb(38, 50, 56); stroke-linecap: round; stroke-linejoin: round; transform-origin: 228.337px 324.932px;" id="el06qetzbaxhff" class="animable"></path><line x1="233.93" y1="329.28" x2="239.13" y2="326.39" style="fill: none; stroke: rgb(38, 50, 56); stroke-linecap: round; stroke-linejoin: round; transform-origin: 236.53px 327.835px;" id="elzhrhqxwwvc" class="animable"></line><path d="M200.13,335.92s8.09-6.07,9.25-6.07,9,10.4,9.53,11.56-.87,4.62-1.73,4.91-8.09,5.2-8.09,5.2Z" style="fill: rgb(255, 255, 255); stroke: rgb(38, 50, 56); stroke-linecap: round; stroke-linejoin: round; transform-origin: 209.578px 340.685px;" id="el4mhxy5lgerg" class="animable"></path><path d="M141.49,341.41C145.82,343.14,169.8,353,169.8,353s26-16.46,28-17.62,6.07.29,6.94.87,8.66,12.71,7.22,15.89-20.51,21.37-28.31,26.28-13,7.52-18.78,7.8-19.93-4.62-30.62-10.11-17.91-14.73-17.91-21.95S127.05,340,132.82,340" style="fill: rgb(255, 255, 255); stroke: rgb(38, 50, 56); stroke-linecap: round; stroke-linejoin: round; transform-origin: 164.239px 360.587px;" id="elduumbyy1546" class="animable"></path><path d="M97.87,324.94s13,1.16,18.78-.86a160.82,160.82,0,0,1,19.93-4.92c2.31-.28,6.64,6.07,9,7.52s2.88,5.77,2.6,7.51-1.16,2.6-4,3.17-9.53-1.44-13.86,0-9.25,5.2-13.29,5.78-12.14-.87-12.14-.87l-14.73-.57S92.09,328.12,97.87,324.94Z" style="fill: rgb(255, 255, 255); stroke: rgb(38, 50, 56); stroke-linecap: round; stroke-linejoin: round; transform-origin: 119.204px 331.214px;" id="elxtc7k3nj79s" class="animable"></path><path d="M124.74,334.19S130.8,331,132,331s8.95,1.73,8.95,1.73,5.78.87,5.78,2.89" style="fill: rgb(255, 255, 255); stroke: rgb(38, 50, 56); stroke-linecap: round; stroke-linejoin: round; transform-origin: 135.735px 333.31px;" id="eltu6wfjmzrd" class="animable"></path><path d="M126.76,327.25s5.49-2,6.93-1.73,8.38,2.31,11,4.62a15.53,15.53,0,0,1,3.47,4.05" style="fill: rgb(255, 255, 255); stroke: rgb(38, 50, 56); stroke-linecap: round; stroke-linejoin: round; transform-origin: 137.46px 329.842px;" id="ell6ut87c7v9k" class="animable"></path><path d="M127.63,323.5s6.64-1.45,8.66-1.16,6.93,2.6,6.93,2.6" style="fill: rgb(255, 255, 255); stroke: rgb(38, 50, 56); stroke-linecap: round; stroke-linejoin: round; transform-origin: 135.425px 323.621px;" id="elpd5rl2bf8jh" class="animable"></path><path d="M101.91,271.5,78.8,311.36s4,3.76,4.92,4.63,8.66,4.91,8.66,4.91S78.8,334.76,77.07,339.1a31.21,31.21,0,0,1-3.47,6.64l-4,.58S50.21,339.1,43,336.21s-10.4-12.42-8.37-19.36,26-51.42,26-51.42,14.44-27.15,21.37-30,17.33-1.73,22.82,2,6.07,12.13,6.07,12.13" style="fill: rgb(255, 193, 0); stroke: rgb(38, 50, 56); stroke-linecap: round; stroke-linejoin: round; transform-origin: 72.4594px 290.073px;" id="elws2g3j3w4k" class="animable"></path><path d="M64,301.2a14.53,14.53,0,0,0-3.09-.81" style="fill: rgb(255, 255, 255); stroke: rgb(38, 50, 56); stroke-linecap: round; stroke-linejoin: round; transform-origin: 62.455px 300.795px;" id="elu8eknszh3n" class="animable"></path><path d="M77.65,311.08a46.64,46.64,0,0,0-11.14-8.75" style="fill: rgb(255, 255, 255); stroke: rgb(38, 50, 56); stroke-linecap: round; stroke-linejoin: round; transform-origin: 72.08px 306.705px;" id="el1x3qnewns7y" class="animable"></path><path d="M56.46,304.32a21.18,21.18,0,0,1,6.77-.61" style="fill: rgb(255, 255, 255); stroke: rgb(38, 50, 56); stroke-linecap: round; stroke-linejoin: round; transform-origin: 59.845px 303.988px;" id="elb5azpqsllzh" class="animable"></path><path d="M51.38,306.43a13.45,13.45,0,0,1,2.19-1.14" style="fill: rgb(255, 255, 255); stroke: rgb(38, 50, 56); stroke-linecap: round; stroke-linejoin: round; transform-origin: 52.475px 305.86px;" id="elc7yo4eb6zs4" class="animable"></path><path d="M104.8,324.36S97,331.88,95,337.65s-4,14.16-4,14.16-1.45.29-9.82-1.74-11.56-3.75-11.56-3.75,4.62-16.18,10.11-21.67,6.65-6.93,6.65-6.93Z" style="fill: rgb(255, 193, 0); stroke: rgb(38, 50, 56); stroke-linecap: round; stroke-linejoin: round; transform-origin: 87.21px 334.772px;" id="el9fz8fdqx5b" class="animable"></path><path d="M148.42,258.5s-5.2-6.07-12.42-6.93-25.42,0-30.62,1.44-9.82,6.07-9.53,7.51a12.56,12.56,0,0,1,.29,1.45l.29,1.73s-.87,8.38-1.45,17,4.91,15.6,6.36,16.76,18.77-22.82,29.46-29.76S148.42,258.5,148.42,258.5Z" style="fill: rgb(133, 133, 133); stroke: rgb(38, 50, 56); stroke-linecap: round; stroke-linejoin: round; transform-origin: 121.679px 274.364px;" id="el1gt7f4yvqcc" class="animable"></path><path d="M97.87,299.52s8.38,7.22,10.4,9.24,7.51-6.06,7.51-6.06,10.11-17.33,20.51-24.85S151.6,266.59,152.76,266s2.6-2.89.58-4.62-4.05-6.36-7.8-5.78-18.78,9.25-28,18.49-16.17,17-18.77,19.93S97.87,299.52,97.87,299.52Z" style="fill: rgb(133, 133, 133); stroke: rgb(38, 50, 56); stroke-linecap: round; stroke-linejoin: round; transform-origin: 125.838px 282.317px;" id="eld8j1dgq7zb7" class="animable"></path><path d="M111.62,302.11c.58.39,1,.67,1.28.81a1.91,1.91,0,0,0,2.4-.27" style="fill: none; stroke: rgb(38, 50, 56); stroke-linecap: round; stroke-linejoin: round; transform-origin: 113.46px 302.667px;" id="elc1ojq5otzht" class="animable"></path><path d="M108,299.55l2.13,1.51" style="fill: none; stroke: rgb(38, 50, 56); stroke-linecap: round; stroke-linejoin: round; transform-origin: 109.065px 300.305px;" id="elhh3pgyszuls" class="animable"></path><path d="M101.2,291.61a2.52,2.52,0,0,0,.53,3.06A40.26,40.26,0,0,0,105.8,298" style="fill: none; stroke: rgb(38, 50, 56); stroke-linecap: round; stroke-linejoin: round; transform-origin: 103.35px 294.805px;" id="elkukyammevqg" class="animable"></path><path d="M107.05,285.23a3.06,3.06,0,0,0,1.33,2.92c1.6.93,9.58,8.25,10.51,8.25s2.13-1.2,2.13-1.2" style="fill: none; stroke: rgb(38, 50, 56); stroke-linecap: round; stroke-linejoin: round; transform-origin: 114.023px 290.815px;" id="elzuok8td82hr" class="animable"></path><path d="M119.29,284.94a32.39,32.39,0,0,0,4.52,2.68,22.08,22.08,0,0,0,2.4-.4" style="fill: none; stroke: rgb(38, 50, 56); stroke-linecap: round; stroke-linejoin: round; transform-origin: 122.75px 286.28px;" id="elncnnklo3w4g" class="animable"></path><path d="M113.3,278.57a4.64,4.64,0,0,0,1.07,2.8,25.69,25.69,0,0,0,3.35,2.53" style="fill: none; stroke: rgb(38, 50, 56); stroke-linecap: round; stroke-linejoin: round; transform-origin: 115.51px 281.235px;" id="elztp143wbib" class="animable"></path><path d="M127.78,280.2l1.49,1" style="fill: none; stroke: rgb(38, 50, 56); stroke-linecap: round; stroke-linejoin: round; transform-origin: 128.525px 280.7px;" id="elsnxkpxczds" class="animable"></path><path d="M119.29,272.85s1.86,2.13,2.92,3.2c.56.55,2.44,1.93,4.12,3.13" style="fill: none; stroke: rgb(38, 50, 56); stroke-linecap: round; stroke-linejoin: round; transform-origin: 122.81px 276.015px;" id="el0cojs44qqxgj" class="animable"></path></g><g id="freepik--Plants--inject-118" class="animable" style="transform-origin: 193.778px 444.827px;"><path d="M210.49,439.1l0,0c1.35-1.22,3.92-2.59,5.5-1.88a2.11,2.11,0,0,1,.64.45l-.16-.58a33.2,33.2,0,0,1-.7-3.4l-.1.05a2.05,2.05,0,0,1,.16.34s-1.2.22-2.48.33l-1.1.23c-.29.49-.6,1-.93,1.61-.57,1-1.2,2.24-1.8,3.58-.16.36-.32.75-.48,1.12l.59-.83A2.06,2.06,0,0,1,210.49,439.1Z" style="fill: none; transform-origin: 212.835px 437.32px;" id="el89zydt0tu18" class="animable"></path><path d="M217.26,439.66a2.49,2.49,0,0,1-.28.82,2.31,2.31,0,0,1-.14.19c.34.34,1.11,1.15,1.42,1.49l0-.06C217.86,441.29,217.54,440.47,217.26,439.66Z" style="fill: none; transform-origin: 217.55px 440.91px;" id="el3gpdb60n5el" class="animable"></path><path d="M302,421.7c-2.14.59-3.47,4.36-3.55,6.34,0,.17.18,2.86.22,2.85s3.62-1.45,4.81-2.71c1-1.08,2-2.73,1.75-4.28A2.63,2.63,0,0,0,302,421.7Z" style="fill: rgb(219, 219, 219); transform-origin: 301.859px 426.257px;" id="elkwreobcdzmb" class="animable"></path><path d="M267.6,444.41s2.23-3.21,2.52-4.92c.26-1.46.17-3.39-.9-4.53a2.62,2.62,0,0,0-3.9-.06c-1.46,1.67-.49,5.56.53,7.25C265.94,442.3,267.58,444.44,267.6,444.41Z" style="fill: rgb(219, 219, 219); transform-origin: 267.41px 439.235px;" id="elvv3sucqari" class="animable"></path><path d="M307.49,472.53c1.13-.95,2.31-2.48,2.23-4a2.62,2.62,0,0,0-3-2.56c-2.2.34-3.95,3.93-4.26,5.89,0,.13-.09,1.63-.11,2.4-.13-.62-.26-1.24-.38-1.89-.18-.93-.34-1.92-.51-2.89-.06-.5-.13-1-.19-1.52s-.1-1-.15-1.53c-.05-.75-.07-1.54-.09-2.32a16.64,16.64,0,0,0,5-1.29c1.26-.77,2.66-2.11,2.82-3.67a2.63,2.63,0,0,0-2.54-3c-2.22,0-4.49,3.29-5.1,5.18,0,.06-.11.47-.2,1,0-.76,0-1.53,0-2.3.08-2.19.23-4.43.37-6.67,0-.46.05-.93.08-1.4.81-.1,3.86-.53,5.14-1.31s2.66-2.11,2.82-3.66a2.63,2.63,0,0,0-2.53-3c-2.22,0-4.5,3.29-5.11,5.18,0,.07-.12.56-.23,1.11.06-1.22.1-2.43.11-3.64a46.6,46.6,0,0,0-.35-6.19c.29,0,3.88-.47,5.31-1.34,1.26-.77,2.66-2.1,2.81-3.66a2.61,2.61,0,0,0-2.53-3c-2.22,0-4.5,3.29-5.1,5.17-.05.14-.4,1.92-.51,2.56a.17.17,0,0,0,0-.07,34.39,34.39,0,0,0-1.42-5.92,48.46,48.46,0,0,0-2-5.06c-.69-1.53-1.42-2.89-2.08-4.09-.36-.64-.7-1.23-1-1.77h.05s-.29-2.67-.33-2.84c-.47-1.92-2.5-5.37-4.72-5.53a2.62,2.62,0,0,0-2.74,2.78c0,1.56,1.34,3,2.54,3.86s4.31,1.54,5.07,1.69c.33.57.67,1.18,1,1.87.63,1.21,1.33,2.58,2,4.12.18.41.35.86.53,1.3-.45-.67-1.08-1.58-1.15-1.66-1.3-1.49-4.69-3.61-6.73-2.74a2.62,2.62,0,0,0-1.15,3.73c.76,1.37,2.56,2.05,4,2.26s4.63-.65,5.31-.84c.37,1,.74,2,1,3a33.27,33.27,0,0,1,1.29,5.9l-.12,0c-.34-.66-1.09-2-1.16-2.15-1.13-1.63-4.27-4.11-6.39-3.47a2.63,2.63,0,0,0-1.56,3.59c.61,1.44,2.33,2.31,3.76,2.68,1.66.42,5.36-.25,5.5-.27a47.33,47.33,0,0,1,.2,6c0,1.48-.14,3-.26,4.48-.22-.47-1.2-2.28-1.28-2.41-1.13-1.62-4.27-4.11-6.39-3.46a2.62,2.62,0,0,0-1.56,3.58c.6,1.45,2.33,2.32,3.76,2.68,1.61.42,5.16-.21,5.46-.26,0,.68-.1,1.36-.16,2.05-.19,2.23-.39,4.46-.52,6.68,0,.76-.06,1.52-.08,2.28-.36-.7-1-2-1.11-2.06-1.12-1.63-4.26-4.11-6.39-3.47a2.63,2.63,0,0,0-1.55,3.59c.6,1.44,2.33,2.31,3.76,2.68s4.43-.09,5.28-.23c0,1.26,0,2.51,0,3.74,0,.53.05,1.08.11,1.59s.12,1,.17,1.52c.15,1,.29,2,.45,3,.08.49.17.94.25,1.42-.26-.77-.68-2-.74-2.07-.87-1.78-3.59-4.71-5.79-4.4a2.63,2.63,0,0,0-2.08,3.31,2.79,2.79,0,0,0,.2.55,10.24,10.24,0,0,0,.3,4c1.34.23,2.68.45,4,.66a8.18,8.18,0,0,0,.84-1.58,27.43,27.43,0,0,0,3.35.12c.14.73.27,1.44.41,2.13l1.36.18c-.16-.72-.33-1.47-.49-2.24C302.9,474.53,306.25,473.58,307.49,472.53Z" style="fill: rgb(219, 219, 219); transform-origin: 298.384px 445.873px;" id="elu8sd8ksv7u" class="animable"></path><path d="M291.22,475l-1-1.16c-.35-.38-.64-.79-1-1.2-.47-.6-.92-1.24-1.36-1.88a16.79,16.79,0,0,0,3.45-3.84c.63-1.34,1.06-3.22.33-4.61a2.62,2.62,0,0,0-3.75-1.08c-1.85,1.22-1.94,5.22-1.4,7.13,0,.06.17.46.36.92-.42-.64-.84-1.28-1.24-1.94-1.15-1.87-2.26-3.82-3.37-5.76l-.71-1.21c.62-.54,2.93-2.58,3.57-3.94s1.06-3.22.33-4.61a2.63,2.63,0,0,0-3.76-1.08c-1.85,1.22-1.93,5.22-1.4,7.13,0,.07.21.54.42,1.06-.62-1.05-1.25-2.09-1.91-3.1a48.28,48.28,0,0,0-3.71-5c.22-.19,3-2.53,3.69-4,.63-1.34,1.05-3.22.32-4.61a2.61,2.61,0,0,0-3.75-1.08c-1.85,1.22-1.94,5.22-1.4,7.13,0,.14.73,1.82,1,2.41l0-.05a33.68,33.68,0,0,0-4.45-4.15,45.54,45.54,0,0,0-4.47-3.11c-1.43-.89-2.79-1.63-4-2.26-.65-.34-1.26-.64-1.83-.91l0,0s-1.71-2.07-1.84-2.18c-1.45-1.35-5.05-3.11-7-2a1.87,1.87,0,0,0-.42.3,3.11,3.11,0,0,0,.22-.4,2.3,2.3,0,0,0-1.31-3.15c-1.85-.59-4.63,1.53-5.64,2.94-.06.09-.73,1.29-1,1.86l-.1,0a29.6,29.6,0,0,1,1.2-5.13c.3-.93.63-1.79,1-2.63a15.45,15.45,0,0,0,4.63.81,4.8,4.8,0,0,0,3.55-1.91,2.3,2.3,0,0,0-.95-3.28c-1.77-.8-4.77,1-5.92,2.3-.07.07-.63.85-1,1.43.16-.38.32-.77.48-1.12.6-1.34,1.23-2.53,1.8-3.58.32-.59.63-1.12.93-1.62a15,15,0,0,0,4.45-1.41,4.75,4.75,0,0,0,2.27-3.33,2.29,2.29,0,0,0-2.35-2.47c-1.94.11-3.76,3.09-4.2,4.77,0,.14-.36,2.48-.33,2.47h0c-.29.47-.6,1-.92,1.54-.59,1-1.25,2.21-1.88,3.55a39.48,39.48,0,0,0-1.84,4.39,30.29,30.29,0,0,0-1.33,5.15v.06c-.09-.56-.37-2.12-.41-2.24-.5-1.66-2.45-4.57-4.38-4.6a2.29,2.29,0,0,0-2.26,2.56,4.75,4.75,0,0,0,2.41,3.24,16.17,16.17,0,0,0,4.61,1.25,41.49,41.49,0,0,0-.39,5.41c0,1,0,2.11,0,3.18-.09-.49-.18-.92-.19-1-.51-1.66-2.45-4.56-4.39-4.6a2.29,2.29,0,0,0-2.25,2.57,4.79,4.79,0,0,0,2.4,3.24,15.22,15.22,0,0,0,4.48,1.22c0,.41,0,.82,0,1.23.09,2,.19,3.91.23,5.83,0,.67,0,1.34,0,2-.07-.43-.14-.79-.16-.85-.5-1.66-2.45-4.56-4.39-4.6a2.3,2.3,0,0,0-2.25,2.57,4.77,4.77,0,0,0,2.41,3.24,14.43,14.43,0,0,0,4.35,1.2c0,.69-.06,1.37-.12,2,0,.45-.07.89-.14,1.34s-.13.88-.2,1.32l0,.14,1,.25c0-.09,0-.17,0-.25.06-.44.11-.89.17-1.33s.08-.92.12-1.38c.07-1.08.1-2.18.09-3.28a15.1,15.1,0,0,0,4.61.28,4.79,4.79,0,0,0,3.33-2.29A2.29,2.29,0,0,0,250.1,452c-1.85-.6-4.63,1.53-5.64,2.93-.06.09-.67,1.18-1,1.79,0-.66,0-1.33,0-2-.08-1.93-.22-3.89-.36-5.84,0-.6-.07-1.2-.11-1.79a16.32,16.32,0,0,0,4.77.31,4.81,4.81,0,0,0,3.32-2.29,2.29,2.29,0,0,0-1.3-3.16c-1.85-.59-4.63,1.53-5.64,2.94-.07.1-1,1.68-1.16,2.09-.07-1.32-.14-2.63-.15-3.93a39.07,39.07,0,0,1,.26-5.23c.12,0,3.34.66,4.79.31a5.78,5.78,0,0,0,2.64-1.34,2.76,2.76,0,0,0,.13,3c.9,1.28,2.77,1.76,4.25,1.82s4.44-1.09,5.17-1.38c.58.29,1.2.61,1.89,1,1.19.67,2.53,1.42,3.93,2.35.37.24.77.52,1.15.78-.74-.31-1.76-.71-1.87-.74-1.9-.53-5.91-.43-7.13,1.42a2.63,2.63,0,0,0,1.1,3.75c1.39.73,3.27.29,4.61-.34s3.51-3.09,4-3.63c.85.6,1.7,1.23,2.55,1.94a32.23,32.23,0,0,1,4.32,4.21l-.08.09c-.64-.36-2-1.11-2.15-1.15-1.84-.74-5.82-1.08-7.24.63a2.63,2.63,0,0,0,.68,3.85c1.3.87,3.22.64,4.62.16,1.61-.56,4.32-3.16,4.43-3.26a48,48,0,0,1,3.47,4.89c.79,1.26,1.53,2.57,2.26,3.88-.45-.27-2.26-1.24-2.4-1.3-1.84-.73-5.83-1.07-7.24.64a2.61,2.61,0,0,0,.68,3.84c1.3.88,3.21.65,4.61.17,1.58-.55,4.19-3,4.41-3.24l1,1.8c1.07,2,2.14,3.94,3.25,5.86.39.66.79,1.3,1.19,1.95-.68-.39-1.94-1.07-2.06-1.11-1.84-.74-5.82-1.08-7.24.63a2.49,2.49,0,0,0-.28,2.74c1.86.42,3.74.84,5.64,1.24a17.85,17.85,0,0,0,4.21-3.07c.68,1.06,1.37,2.1,2.1,3.1.33.42.64.87,1,1.26l.17.19,1.74.32Z" style="fill: rgb(219, 219, 219); transform-origin: 263.718px 445.355px;" id="el74ylm2iklqm" class="animable"></path><path d="M239.49,423.2A4.82,4.82,0,0,0,241,427c1,1.12,4.16,2.44,4.16,2.44s.24-2.34.24-2.49c-.05-1.73-1.16-5.05-3-5.59A2.3,2.3,0,0,0,239.49,423.2Z" style="fill: rgb(219, 219, 219); transform-origin: 242.441px 425.355px;" id="elniqoyhnszwl" class="animable"></path><path d="M239.32,461a2.19,2.19,0,0,0-.12-.49,2.28,2.28,0,0,0-3.08-1.46,3.7,3.7,0,0,0-1.69,2.18q3,.71,6,1.5A8.12,8.12,0,0,0,239.32,461Z" style="fill: rgb(219, 219, 219); transform-origin: 237.43px 460.799px;" id="elrb8wibppyrl" class="animable"></path><path d="M248.22,461.44c-1.37-.22-3,1-4.09,2.28l5.48,1.46a2.91,2.91,0,0,0,.38-.82A2.3,2.3,0,0,0,248.22,461.44Z" style="fill: rgb(219, 219, 219); transform-origin: 247.109px 463.297px;" id="el10odw0cdvj8m" class="animable"></path><path d="M229.71,459.63l.37.61,1.22.28c-.47-.79-1-1.58-1.48-2.36a15.07,15.07,0,0,0,4-2.31,4.84,4.84,0,0,0,1.51-3.75,2.3,2.3,0,0,0-2.83-1.91c-1.87.53-3,3.83-3.08,5.56,0,.11.09,1.36.15,2-.37-.55-.74-1.1-1.13-1.64-1.14-1.57-2.34-3.13-3.52-4.68L223.83,450a15.71,15.71,0,0,0,4.15-2.38,4.74,4.74,0,0,0,1.51-3.74,2.29,2.29,0,0,0-2.83-1.91c-1.87.52-3,3.83-3.08,5.56,0,.13.13,1.92.19,2.38-.79-1.05-1.57-2.11-2.3-3.18a42,42,0,0,1-2.67-4.51,16.34,16.34,0,0,0,4.18-2.39,4.81,4.81,0,0,0,1.51-3.74,2.3,2.3,0,0,0-2.84-1.91c-1.86.52-3,3.83-3.07,5.56,0,.11.09,1.48.16,2.13l-.11,0A30.48,30.48,0,0,1,216.8,437c-.26-.93-.46-1.84-.64-2.72a15.73,15.73,0,0,0,4.31-1.88,4.81,4.81,0,0,0,1.91-3.56,2.31,2.31,0,0,0-2.61-2.21,3.24,3.24,0,0,0-1.78,1.16,2.1,2.1,0,0,0-1.34-.38,2.75,2.75,0,0,0-1.34.51c0-.48-.06-1-.08-1.38a15.15,15.15,0,0,0,2.93-3.63,4.8,4.8,0,0,0,.06-4,2.31,2.31,0,0,0-3.33-.76c-1.55,1.17-1.43,4.66-.87,6.3,0,.14,1.07,2.27,1.09,2.24l0,0c0,.43,0,.9.06,1.38a7.74,7.74,0,0,0-2,2.36c-1.25-1-2.9-1.88-4.15-1.5a2.3,2.3,0,0,0-1.34,3.14,4.74,4.74,0,0,0,3.3,2.33,4.93,4.93,0,0,0,1.1.12c0,.12,0,.21,0,.2h0c-.29.47-.59,1-.92,1.53-.59,1-1.25,2.22-1.88,3.55a40.32,40.32,0,0,0-1.83,4.39,29.61,29.61,0,0,0-1.33,5.15.13.13,0,0,0,0,.06c-.08-.56-.37-2.12-.41-2.24-.5-1.66-2.44-4.56-4.38-4.6a2.3,2.3,0,0,0-2.26,2.57,4.83,4.83,0,0,0,2.41,3.24,15.79,15.79,0,0,0,4.62,1.24,38.27,38.27,0,0,0-.39,5.41c0,.76,0,1.52,0,2.29h.59c0-.77-.06-1.53-.07-2.29a41,41,0,0,1,.26-5.24,16.21,16.21,0,0,0,4.79.32,4.82,4.82,0,0,0,3.33-2.29,2.3,2.3,0,0,0-1.31-3.16c-1.85-.59-4.62,1.53-5.63,2.94-.07.09-.74,1.29-1,1.87l-.11,0a29.6,29.6,0,0,1,1.21-5.13c.29-.92.62-1.79,1-2.63.16.05.48.15.88.25a2.41,2.41,0,0,0,.35.65,4.78,4.78,0,0,0,3.8,1.37,16.06,16.06,0,0,0,4.54-1.5,41.15,41.15,0,0,0,2.65,4.72c.57.89,1.18,1.76,1.79,2.63l-.69-.71c-1.34-1.1-4.56-2.46-6.2-1.41a2.29,2.29,0,0,0-.46,3.38,4.78,4.78,0,0,0,3.79,1.37,14.8,14.8,0,0,0,4.41-1.45l.72,1c1.16,1.58,2.32,3.15,3.41,4.73.38.56.74,1.12,1.1,1.68l-.6-.61c-1.34-1.1-4.56-2.46-6.2-1.42a2.18,2.18,0,0,0-1,2.21q3.8.64,7.78,1.52Zm-20.16-19.82c.6-1.34,1.23-2.53,1.8-3.58.33-.59.64-1.12.93-1.61l1.1-.23c1.28-.11,2.48-.33,2.48-.33a2.05,2.05,0,0,0-.16-.34l.1-.05a33.2,33.2,0,0,0,.7,3.4l.16.58a2.11,2.11,0,0,0-.64-.45c-1.58-.71-4.15.66-5.5,1.88l0,0a2.06,2.06,0,0,0-.83,1l-.59.83C209.23,440.56,209.39,440.17,209.55,439.81Zm7.29.86a2.31,2.31,0,0,0,.14-.19,2.49,2.49,0,0,0,.28-.82c.28.81.6,1.63,1,2.44l0,.06C218,441.82,217.18,441,216.84,440.67Z" style="fill: rgb(219, 219, 219); transform-origin: 217.195px 439.128px;" id="elxcd18g40r7g" class="animable"></path><path d="M30,424.22q1.25,2.86,2.57,5.49c1.32-.1,2.59-.34,2.59-.34s-1.08-2.08-1.17-2.2A8.59,8.59,0,0,0,30,424.22Z" style="fill: rgb(219, 219, 219); transform-origin: 32.58px 426.965px;" id="elbnsak2de03" class="animable"></path><path d="M58.82,418.51a4.81,4.81,0,0,0,1.46,3.76c1,1.12,4.17,2.44,4.17,2.44s.24-2.34.24-2.49c0-1.73-1.16-5-3-5.59A2.29,2.29,0,0,0,58.82,418.51Z" style="fill: rgb(219, 219, 219); transform-origin: 61.7503px 420.63px;" id="elbzyw7dsxs6" class="animable"></path><path d="M66.37,462.44a4.78,4.78,0,0,0,2.94-2.77,2.29,2.29,0,0,0-1.77-2.92c-1.91-.3-4.34,2.22-5.12,3.76,0,.06-.19.48-.36.94.86.47,1.73.91,2.62,1.34A6.5,6.5,0,0,0,66.37,462.44Z" style="fill: rgb(219, 219, 219); transform-origin: 65.7349px 459.758px;" id="elkdxgx9m7z1e" class="animable"></path><path d="M36,435.82l-.15-.1c.44.73.88,1.46,1.33,2.17l.49-.23a40.42,40.42,0,0,0,2.66,4.72c.27.42.56.82.84,1.24a68.82,68.82,0,0,0,5.43,6.29c-.78-1.05-1.57-2.09-2.37-3.13l-1.08-1.43A15.9,15.9,0,0,0,47.31,443a4.84,4.84,0,0,0,1.51-3.75A2.29,2.29,0,0,0,46,437.32c-1.87.52-3,3.83-3.08,5.56,0,.13.13,1.92.19,2.38-.8-1.05-1.57-2.11-2.3-3.18a40.39,40.39,0,0,1-2.67-4.51c.11-.05,3.16-1.3,4.17-2.39a4.74,4.74,0,0,0,1.51-3.74A2.29,2.29,0,0,0,41,429.53c-1.87.52-3,3.83-3.08,5.56,0,.11.1,1.48.16,2.13l-.1,0a29.25,29.25,0,0,1-1.83-4.95c-.26-.93-.47-1.84-.64-2.72a15.56,15.56,0,0,0,4.3-1.88,4.78,4.78,0,0,0,1.91-3.56,2.3,2.3,0,0,0-2.6-2.21c-1.91.32-3.42,3.48-3.67,5.19,0,.1,0,1.06-.07,1.76-.07-.4-.16-.81-.22-1.2-.24-1.45-.37-2.79-.47-4-.06-.68-.09-1.29-.12-1.86a15.69,15.69,0,0,0,2.94-3.64,4.81,4.81,0,0,0,.06-4,2.3,2.3,0,0,0-3.33-.77c-1.56,1.17-1.43,4.66-.87,6.3,0,.14,1.06,2.27,1.09,2.24l0,0c0,.55,0,1.14.07,1.78.08,1.2.18,2.54.39,4a41,41,0,0,0,.9,4.67,28.85,28.85,0,0,0,1.73,5l0,.06C37.21,437.05,36.11,435.9,36,435.82Z" style="fill: rgb(219, 219, 219); transform-origin: 40.9052px 431.437px;" id="eloh072oyli6" class="animable"></path><path d="M51.82,445.51c-1.86.52-3,3.82-3.08,5.55,0,.07,0,.5.07,1,.38.35.77.71,1.16,1.05a12.11,12.11,0,0,0,3.18-1.94,4.83,4.83,0,0,0,1.51-3.74A2.3,2.3,0,0,0,51.82,445.51Z" style="fill: rgb(219, 219, 219); transform-origin: 51.7027px 449.275px;" id="el4663c16pofs" class="animable"></path><path d="M60.54,460.42a9.14,9.14,0,0,0-1.89-4.08,2.92,2.92,0,0,0-.12-.49,2.29,2.29,0,0,0-3.09-1.46,3.46,3.46,0,0,0-1.56,1.88,63.49,63.49,0,0,0,6.67,4.35A1.92,1.92,0,0,1,60.54,460.42Z" style="fill: rgb(219, 219, 219); transform-origin: 57.215px 457.414px;" id="els4sxqnwuyz" class="animable"></path><path d="M61.63,457c-.06.44-.13.88-.19,1.32-.16.83-.31,1.69-.48,2.5l1,.52.06-.3c.16-.84.29-1.68.44-2.58,0-.44.11-.89.17-1.33s.07-.92.12-1.38c.07-1.08.09-2.18.09-3.28a15.07,15.07,0,0,0,4.61.28,4.75,4.75,0,0,0,3.32-2.29,2.28,2.28,0,0,0-1.3-3.15c-1.85-.6-4.63,1.53-5.64,2.93-.06.09-.67,1.18-1,1.79,0-.66,0-1.33,0-2-.09-1.93-.23-3.89-.36-5.84,0-.6-.08-1.2-.11-1.79a16,16,0,0,0,4.77.31,4.85,4.85,0,0,0,3.32-2.29,2.3,2.3,0,0,0-1.31-3.16c-1.84-.59-4.62,1.53-5.63,2.94-.08.1-1,1.68-1.16,2.09-.08-1.32-.14-2.63-.16-3.92a40.87,40.87,0,0,1,.26-5.24c.12,0,3.35.66,4.8.31a4.77,4.77,0,0,0,3.32-2.29A2.29,2.29,0,0,0,69.2,428c-1.85-.59-4.63,1.53-5.64,2.94-.07.09-.74,1.29-1,1.86l-.11,0a29.6,29.6,0,0,1,1.21-5.13c.29-.93.63-1.79,1-2.63a15.37,15.37,0,0,0,4.62.81A4.8,4.8,0,0,0,72.77,424a2.3,2.3,0,0,0-1-3.28c-1.77-.8-4.77,1-5.93,2.3-.06.07-.62.85-1,1.43.16-.38.31-.77.48-1.12.59-1.34,1.23-2.53,1.79-3.58.33-.59.64-1.12.93-1.62a15,15,0,0,0,4.46-1.41,4.78,4.78,0,0,0,2.27-3.33,2.29,2.29,0,0,0-2.36-2.47c-1.93.11-3.76,3.09-4.19,4.77,0,.14-.37,2.48-.33,2.47h0c-.29.47-.6,1-.93,1.54-.59,1-1.25,2.22-1.88,3.55a41.51,41.51,0,0,0-1.83,4.39A29.38,29.38,0,0,0,62,432.73a.13.13,0,0,1,0,.06c-.08-.56-.37-2.12-.4-2.24-.5-1.66-2.45-4.57-4.39-4.6a2.29,2.29,0,0,0-2.25,2.56,4.77,4.77,0,0,0,2.4,3.24A16,16,0,0,0,62,433a41.49,41.49,0,0,0-.39,5.41c0,1,0,2.11,0,3.18-.09-.49-.17-.92-.19-1C60.92,439,59,436.05,57,436a2.3,2.3,0,0,0-2.26,2.57,4.83,4.83,0,0,0,2.41,3.24A15.14,15.14,0,0,0,61.67,443c0,.41,0,.82,0,1.23.09,2,.19,3.91.23,5.83,0,.67,0,1.34,0,2l-.16-.85c-.51-1.66-2.45-4.56-4.39-4.6a2.29,2.29,0,0,0-2.25,2.57,4.79,4.79,0,0,0,2.4,3.24,14.48,14.48,0,0,0,4.36,1.2c0,.69-.06,1.37-.12,2C61.73,456.15,61.71,456.59,61.63,457Z" style="fill: rgb(219, 219, 219); transform-origin: 64.7506px 436.129px;" id="eljb8ibhv33e" class="animable"></path><path d="M313.83,434.46a4.34,4.34,0,0,0,1.34,3.42A15,15,0,0,0,319,440.1s.22-2.13.21-2.26c0-1.58-1.05-4.6-2.75-5.09A2.08,2.08,0,0,0,313.83,434.46Z" style="fill: rgb(219, 219, 219); transform-origin: 316.516px 436.385px;" id="elweq05toj3z" class="animable"></path><path d="M341.59,447.3a14.89,14.89,0,0,0,1.94,3.94s1.35-1.65,1.42-1.77c.84-1.34,1.66-4.41.52-5.76a2.09,2.09,0,0,0-3.11,0A4.41,4.41,0,0,0,341.59,447.3Z" style="fill: rgb(219, 219, 219); transform-origin: 343.758px 447.128px;" id="el4o8w6xieub8" class="animable"></path><path d="M356.54,444.73c-1.52-.88-4.41.47-5.58,1.52-.1.1-1.52,1.7-1.49,1.72h0c-.46.21-.95.44-1.47.7-1,.5-2.07,1.06-3.21,1.76a37,37,0,0,0-3.6,2.41,27,27,0,0,0-3.59,3.25l0,0c.22-.47.79-1.8.82-1.91.45-1.51.43-4.69-1-5.69a2.09,2.09,0,0,0-3,.82,4.38,4.38,0,0,0,.21,3.67,14.47,14.47,0,0,0,2.88,3.26,37.11,37.11,0,0,0-3,3.91c-.54.79-1.05,1.61-1.56,2.44.17-.42.33-.78.34-.84.45-1.51.43-4.69-1-5.69a2.09,2.09,0,0,0-3,.81,4.37,4.37,0,0,0,.2,3.67,13.92,13.92,0,0,0,2.79,3.18l-.57,1c-.92,1.53-1.82,3.06-2.76,4.54-.32.52-.67,1-1,1.52.16-.36.28-.67.3-.72.45-1.51.43-4.69-1-5.69a2.09,2.09,0,0,0-3,.81,4.41,4.41,0,0,0,.21,3.67,13.33,13.33,0,0,0,2.7,3.1c-.36.51-.73,1-1.1,1.48s-.5.64-.78.95l-.82.9c-.54.56-1.09,1.14-1.63,1.67-.37.38-.73.72-1.09,1.08.33-.52,1-1.54,1-1.63a8.11,8.11,0,0,0,.61-4.05,2.23,2.23,0,0,0,.16-.43,2.09,2.09,0,0,0-1.61-2.66c-1.74-.28-3.95,2-4.66,3.42-.05.09-.4,1-.62,1.64.08-.37.15-.74.22-1.12.14-.76.26-1.53.4-2.35l.15-1.21c.06-.4.07-.84.11-1.26.06-1,.08-2,.08-3a13.72,13.72,0,0,0,4.19.25,4.35,4.35,0,0,0,3-2.08,2.1,2.1,0,0,0-1.19-2.88c-1.68-.53-4.21,1.4-5.13,2.68-.06.08-.61,1.08-.91,1.63,0-.61,0-1.21,0-1.82-.08-1.76-.21-3.54-.33-5.32,0-.55-.07-1.09-.1-1.63a14.36,14.36,0,0,0,4.34.28,4.4,4.4,0,0,0,3-2.09,2.09,2.09,0,0,0-1.19-2.87c-1.68-.54-4.21,1.4-5.13,2.68-.07.09-.87,1.53-1.05,1.9-.07-1.2-.14-2.39-.15-3.57a35.61,35.61,0,0,1,.24-4.77,14.63,14.63,0,0,0,4.36.29,4.4,4.4,0,0,0,3-2.09,2.1,2.1,0,0,0-1.2-2.87c-1.68-.54-4.21,1.4-5.12,2.68-.06.08-.67,1.17-1,1.7l-.1,0a27.61,27.61,0,0,1,1.1-4.68c.26-.84.57-1.63.88-2.39a13.66,13.66,0,0,0,4.21.73,4.36,4.36,0,0,0,3.23-1.74,2.08,2.08,0,0,0-.87-3c-1.61-.72-4.33.92-5.39,2.1,0,.06-.57.77-.93,1.3.15-.34.29-.7.44-1,.54-1.22,1.11-2.31,1.63-3.26.3-.54.58-1,.84-1.47a14.18,14.18,0,0,0,4.06-1.29,4.38,4.38,0,0,0,2.07-3,2.1,2.1,0,0,0-2.15-2.25c-1.76.11-3.42,2.83-3.82,4.35,0,.13-.33,2.26-.3,2.25h0c-.27.42-.54.88-.84,1.39-.54.95-1.14,2-1.71,3.23a34.93,34.93,0,0,0-1.66,4,26.59,26.59,0,0,0-1.21,4.69.13.13,0,0,0,0,.06c-.08-.51-.34-1.93-.37-2-.46-1.51-2.23-4.16-4-4.19a2.09,2.09,0,0,0-2.05,2.34,4.39,4.39,0,0,0,2.2,2.95,14.43,14.43,0,0,0,4.2,1.13,36,36,0,0,0-.35,4.92c0,1,0,1.93,0,2.9-.08-.44-.16-.84-.17-.89-.46-1.51-2.23-4.16-4-4.18a2.08,2.08,0,0,0-2.05,2.33,4.38,4.38,0,0,0,2.19,2.95,13.72,13.72,0,0,0,4.08,1.11c0,.37,0,.74.05,1.12.08,1.78.17,3.56.21,5.3,0,.62,0,1.23,0,1.83-.08-.39-.14-.72-.15-.77-.46-1.5-2.23-4.15-4-4.18a2.09,2.09,0,0,0-2.05,2.34,4.34,4.34,0,0,0,2.19,2.94,13.24,13.24,0,0,0,4,1.1c0,.62-.05,1.24-.11,1.84,0,.41-.06.81-.13,1.22l-.18,1.21c-.14.76-.28,1.55-.44,2.29-.1.51-.21,1-.32,1.5,0-.62,0-1.81-.06-1.91-.22-1.57-1.57-4.45-3.31-4.75a2.1,2.1,0,0,0-2.38,2,4.34,4.34,0,0,0,1.72,3.25,14.49,14.49,0,0,0,4,1.75c-.18.81-.37,1.6-.56,2.35-.07.3-.15.59-.22.87l1.08.09c.05-.24.11-.48.16-.72.19-.83.38-1.72.56-2.63a22.26,22.26,0,0,0,2.66-.06,15.38,15.38,0,0,0,2.3,3.51l-.22.2c3.05.14,6.14.19,9.27.17a1.93,1.93,0,0,0-.64-1.52c-1.3-1.19-4.4-.49-5.77.29-.08,0-.91.64-1.42,1l.8-.82c.54-.56,1.06-1.13,1.63-1.74l.79-.93c.27-.3.52-.66.79-1,.59-.78,1.16-1.6,1.71-2.44a14,14,0,0,0,3.36,2.53,4.38,4.38,0,0,0,3.68-.08,2.08,2.08,0,0,0,.58-3.05c-1.1-1.38-4.28-1.15-5.75-.59-.09,0-1.1.55-1.65.85.32-.5.65-1,1-1.53.91-1.51,1.78-3.07,2.66-4.62.27-.48.54-1,.82-1.42a14.45,14.45,0,0,0,3.46,2.63,4.42,4.42,0,0,0,3.68-.07,2.1,2.1,0,0,0,.59-3.06c-1.11-1.37-4.29-1.15-5.76-.59-.11,0-1.56.8-1.92,1,.59-1,1.2-2.06,1.84-3a36,36,0,0,1,2.83-3.85,14.51,14.51,0,0,0,3.48,2.64,4.32,4.32,0,0,0,3.67-.07,2.08,2.08,0,0,0,.59-3.05c-1.1-1.38-4.28-1.16-5.75-.59-.1,0-1.21.61-1.73.89l-.06-.08a26.11,26.11,0,0,1,3.49-3.29c.69-.56,1.37-1.05,2-1.51a14.16,14.16,0,0,0,3.11,2.93,4.37,4.37,0,0,0,3.66.33,2.09,2.09,0,0,0,.92-3c-.95-1.49-4.13-1.62-5.65-1.22-.09,0-.9.34-1.5.57l.93-.61c1.12-.72,2.2-1.3,3.16-1.81.54-.29,1-.54,1.51-.77a14,14,0,0,0,4.1,1.17,4.4,4.4,0,0,0,3.4-1.4A2.09,2.09,0,0,0,356.54,444.73Z" style="fill: rgb(219, 219, 219); transform-origin: 333.623px 453.132px;" id="elmoyxgv4qhwg" class="animable"></path><path d="M174.57,446.16c1.47.38,4.82-.26,4.82-.26s-1.09-2.08-1.17-2.2c-1-1.42-3.75-3.58-5.6-3a2.29,2.29,0,0,0-1.35,3.14A4.8,4.8,0,0,0,174.57,446.16Z" style="fill: rgb(219, 219, 219); transform-origin: 175.223px 443.442px;" id="eln3n82fgwjqg" class="animable"></path><path d="M203,435a4.79,4.79,0,0,0,1.47,3.76c1,1.12,4.16,2.44,4.17,2.44s.24-2.33.23-2.48c0-1.73-1.15-5.05-3-5.6A2.31,2.31,0,0,0,203,435Z" style="fill: rgb(219, 219, 219); transform-origin: 205.931px 437.122px;" id="elabtdjxjt9c" class="animable"></path><path d="M182.34,454.1c.11-.05,3.15-1.29,4.17-2.38A4.84,4.84,0,0,0,188,448a2.29,2.29,0,0,0-2.83-1.91c-1.87.53-3,3.83-3.08,5.56,0,.11.1,1.48.16,2.13l-.11,0a28.88,28.88,0,0,1-1.82-4.95c-.27-.93-.47-1.83-.65-2.72a15.3,15.3,0,0,0,4.31-1.88,4.78,4.78,0,0,0,1.91-3.55,2.29,2.29,0,0,0-2.6-2.21c-1.92.31-3.42,3.47-3.68,5.18,0,.1,0,1.06-.06,1.76-.08-.4-.16-.81-.22-1.2-.24-1.44-.37-2.78-.47-4-.06-.68-.09-1.29-.12-1.86a15.43,15.43,0,0,0,2.93-3.64,4.74,4.74,0,0,0,.06-4,2.29,2.29,0,0,0-3.33-.76c-1.55,1.16-1.43,4.65-.86,6.29,0,.14,1.06,2.27,1.08,2.25l0,0c0,.55,0,1.14.08,1.79.08,1.19.18,2.54.39,4a41.44,41.44,0,0,0,.89,4.68,30.94,30.94,0,0,0,1.73,5l0,.05c-.38-.42-1.48-1.56-1.57-1.64-1.34-1.11-4.56-2.46-6.2-1.42a2.29,2.29,0,0,0-.46,3.38,4.79,4.79,0,0,0,3.79,1.38,16,16,0,0,0,4.54-1.51,39.73,39.73,0,0,0,2.5,4.47l.6-.07A40.86,40.86,0,0,1,182.34,454.1Z" style="fill: rgb(219, 219, 219); transform-origin: 180.47px 444.099px;" id="elzh3k6o8nk8" class="animable"></path><path d="M190.19,453.85c-1.52.43-2.57,2.72-2.93,4.49,1.82-.2,3.63-.37,5.41-.52a3.56,3.56,0,0,0,.36-2.06A2.31,2.31,0,0,0,190.19,453.85Z" style="fill: rgb(219, 219, 219); transform-origin: 190.159px 456.061px;" id="el9p6d6v1biuk" class="animable"></path><path d="M213.28,453.83c-1.85-.59-4.63,1.53-5.64,2.94l-.26.46c2.35,0,4.63.15,6.84.35a3.06,3.06,0,0,0,.37-.59A2.31,2.31,0,0,0,213.28,453.83Z" style="fill: rgb(219, 219, 219); transform-origin: 211.095px 455.654px;" id="eldau5b5v3hti" class="animable"></path><path d="M201.24,452.54a2.3,2.3,0,0,0-2.25,2.57,3.76,3.76,0,0,0,1.16,2.23c1.87-.07,3.7-.11,5.5-.11a.51.51,0,0,1,0-.09C205.13,455.49,203.18,452.58,201.24,452.54Z" style="fill: rgb(219, 219, 219); transform-origin: 202.312px 454.94px;" id="elagawk1bqaad" class="animable"></path><path d="M179.91,459.22l1.2-.16A3.29,3.29,0,0,0,179.91,459.22Z" style="fill: rgb(219, 219, 219); transform-origin: 180.51px 459.138px;" id="eluq9r7lilugr" class="animable"></path></g><defs>     <filter id="active" height="200%">         <feMorphology in="SourceAlpha" result="DILATED" operator="dilate" radius="2"></feMorphology>                <feFlood flood-color="#32DFEC" flood-opacity="1" result="PINK"></feFlood>        <feComposite in="PINK" in2="DILATED" operator="in" result="OUTLINE"></feComposite>        <feMerge>            <feMergeNode in="OUTLINE"></feMergeNode>            <feMergeNode in="SourceGraphic"></feMergeNode>        </feMerge>    </filter>    <filter id="hover" height="200%">        <feMorphology in="SourceAlpha" result="DILATED" operator="dilate" radius="2"></feMorphology>                <feFlood flood-color="#ff0000" flood-opacity="0.5" result="PINK"></feFlood>        <feComposite in="PINK" in2="DILATED" operator="in" result="OUTLINE"></feComposite>        <feMerge>            <feMergeNode in="OUTLINE"></feMergeNode>            <feMergeNode in="SourceGraphic"></feMergeNode>        </feMerge>            <feColorMatrix type="matrix" values="0   0   0   0   0                0   1   0   0   0                0   0   0   0   0                0   0   0   1   0 "></feColorMatrix>    </filter></defs></svg>